<svg width="291" height="128" fill="none" xmlns="http://www.w3.org/2000/svg"><mask id="path-1-inside-1_2_30" fill="#fff"><path d="M27 21H5a5 5 0 0 0-5 5v31a5 5 0 0 0 5 5h6.5v9l-.5 38a5 5 0 0 0 5 5h38a5 5 0 0 0 5-5V26a5 5 0 0 0-5-5H27Z"/></mask><path d="m11 109-1-.013V109h1Zm.5-47h1v-1h-1v1Zm0 9 1 .013V71h-1ZM16 22h11v-2H16v2Zm11 0h27v-2H27v2Zm31 4v83h2V26h-2Zm-4 87H16v2h38v-2Zm-38 0a4 4 0 0 1-4-4h-2a6 6 0 0 0 6 6v-2Zm42-4a4 4 0 0 1-4 4v2a6 6 0 0 0 6-6h-2Zm-4-87a4 4 0 0 1 4 4h2a6 6 0 0 0-6-6v2ZM5 22h11v-2H5v2ZM1 57V26h-2v31h2Zm4 4a4 4 0 0 1-4-4h-2a6 6 0 0 0 6 6v-2Zm0-41a6 6 0 0 0-6 6h2a4 4 0 0 1 4-4v-2Zm0 43h6.5v-2H5v2Zm5.5-1v9h2v-9h-2Zm0 8.987-.5 38 2 .026.5-38-2-.026Z" fill="#000" mask="url('#path-1-inside-1_2_30')"/><path d="M43 47v.5h.5V47H43Zm-10.354-.354a.5.5 0 0 0 0 .708l3.182 3.181a.5.5 0 1 0 .707-.707L33.707 47l2.828-2.828a.5.5 0 1 0-.707-.707l-3.182 3.181ZM43.5 40a.5.5 0 0 0-1 0h1Zm-.5 6.5H33v1h10v-1Zm.5.5v-7h-1v7h1Z" fill="#000"/><rect x="80.5" y="21.5" width="75" height="40" rx="4.5" stroke="#000"/><path d="M136.3 43.5h6.7a4.5 4.5 0 0 1 4.5 4.5v4a4.5 4.5 0 0 1-4.5 4.5h-6.7a4.5 4.5 0 0 1-3.417-1.571l-1.714-2a4.499 4.499 0 0 1 0-5.858l1.714-2A4.5 4.5 0 0 1 136.3 43.5ZM137.354 47.354l4.949 4.949M142.303 47.354l-4.949 4.949" stroke="#000"/><rect x="178.5" y="21.5" width="50" height="50" rx="4.5" stroke="#000"/><path d="M203.354 34.646a.501.501 0 0 0-.708 0l-3.182 3.182a.5.5 0 0 0 .708.707L203 35.707l2.828 2.828a.501.501 0 0 0 .708-.707l-3.182-3.182ZM203.5 58V35h-1v23h1Z" fill="#000"/><rect x="228.5" y="127.5" width="50" height="50" rx="4.5" transform="rotate(-180 228.5 127.5)" stroke="#000"/><path d="M202.646 114.354a.502.502 0 0 0 .708 0l3.182-3.182a.502.502 0 0 0-.708-.708L203 113.293l-2.828-2.829a.502.502 0 0 0-.708.708l3.182 3.182ZM202.5 91v23h1V91h-1ZM1.605 6.719V10H.767V4.545h.81v.853h.07c.129-.277.323-.5.583-.668.26-.17.597-.256 1.009-.256.369 0 .692.076.97.228.276.149.492.376.645.682.154.303.231.686.231 1.15V10h-.838V6.59c0-.428-.111-.761-.334-1-.222-.242-.528-.363-.916-.363-.267 0-.506.058-.717.174a1.245 1.245 0 0 0-.494.508c-.12.223-.18.493-.18.81Zm7.299 3.395c-.526 0-.98-.116-1.36-.348a2.336 2.336 0 0 1-.878-.98c-.203-.422-.305-.912-.305-1.47 0-.56.102-1.052.305-1.478a2.41 2.41 0 0 1 .86-1.001c.37-.242.8-.363 1.292-.363.284 0 .565.048.842.142.277.095.53.25.756.462.228.21.409.49.544.838.135.348.202.777.202 1.286v.355H6.958v-.725h3.352c0-.307-.062-.582-.185-.823a1.392 1.392 0 0 0-.518-.572 1.452 1.452 0 0 0-.789-.21c-.333 0-.622.083-.866.249a1.635 1.635 0 0 0-.558.64c-.13.262-.195.544-.195.844v.483c0 .412.071.761.213 1.048.145.284.345.5.6.65.256.146.553.22.892.22.22 0 .419-.031.596-.093.18-.063.335-.158.465-.284.13-.127.231-.286.302-.475l.81.227a1.795 1.795 0 0 1-.43.724c-.201.206-.45.367-.746.483-.295.114-.628.17-.997.17ZM13.673 10 12.01 4.545h.88l1.18 4.177h.056l1.165-4.177h.895l1.15 4.162h.057l1.18-4.162h.88L17.792 10h-.824l-1.193-4.19h-.085L14.497 10h-.824Zm10.54-7.273V10h-.838V2.727h.837ZM25.746 10V4.545h.839V10h-.838Zm.427-6.364a.596.596 0 0 1-.423-.167.536.536 0 0 1-.174-.4c0-.157.058-.29.174-.402a.596.596 0 0 1 .423-.167c.163 0 .303.056.419.167a.531.531 0 0 1 .177.401c0 .156-.059.29-.177.401a.584.584 0 0 1-.42.167Zm2.785 3.083V10h-.838V4.545h.81v.853H29c.128-.277.322-.5.583-.668.26-.17.596-.256 1.008-.256.37 0 .693.076.97.228.277.149.492.376.646.682.154.303.23.686.23 1.15V10h-.837V6.59c0-.428-.112-.761-.334-1-.223-.242-.528-.363-.916-.363-.268 0-.507.058-.718.174a1.246 1.246 0 0 0-.493.508c-.121.223-.181.493-.181.81Zm7.298 3.395c-.526 0-.979-.116-1.36-.348a2.336 2.336 0 0 1-.877-.98c-.204-.422-.306-.912-.306-1.47 0-.56.102-1.052.306-1.478a2.41 2.41 0 0 1 .86-1.001c.369-.242.8-.363 1.292-.363.284 0 .565.048.842.142.276.095.529.25.756.462.227.21.408.49.543.838.135.348.203.777.203 1.286v.355H34.31v-.725h3.352c0-.307-.061-.582-.184-.823a1.391 1.391 0 0 0-.519-.572 1.452 1.452 0 0 0-.788-.21c-.334 0-.623.083-.867.249a1.635 1.635 0 0 0-.557.64c-.13.262-.195.544-.195.844v.483c0 .412.07.761.213 1.048.144.284.344.5.6.65.255.146.553.22.891.22.22 0 .42-.031.597-.093.18-.063.335-.158.465-.284.13-.127.23-.286.302-.475l.81.227a1.795 1.795 0 0 1-.43.724c-.201.206-.45.367-.746.483-.296.114-.629.17-.998.17ZM82.827 10.114c-.455 0-.856-.115-1.204-.345a2.326 2.326 0 0 1-.817-.98c-.196-.424-.295-.924-.295-1.502 0-.573.099-1.07.295-1.492.197-.42.47-.746.82-.976.35-.23.756-.345 1.215-.345.355 0 .636.06.842.178.208.116.366.249.475.398.112.147.198.267.26.362h.07V2.727h.839V10h-.81v-.838h-.1c-.06.1-.148.225-.262.376a1.56 1.56 0 0 1-.487.402c-.21.116-.49.174-.841.174Zm.113-.753c.337 0 .62-.088.853-.263.232-.178.408-.423.529-.735.12-.315.18-.678.18-1.09 0-.407-.058-.764-.177-1.07a1.556 1.556 0 0 0-.525-.716c-.232-.173-.519-.26-.86-.26-.355 0-.65.091-.887.274-.235.18-.411.425-.53.735a2.922 2.922 0 0 0-.174 1.037c0 .388.06.74.178 1.058.12.315.298.566.533.753.236.184.53.277.88.277Zm6.325.753c-.526 0-.979-.116-1.36-.348a2.336 2.336 0 0 1-.877-.98c-.204-.422-.306-.912-.306-1.47 0-.56.102-1.052.306-1.478a2.41 2.41 0 0 1 .86-1.001c.368-.242.8-.363 1.292-.363.284 0 .564.048.841.142.277.095.53.25.757.462.227.21.408.49.543.838.135.348.202.777.202 1.286v.355H87.32v-.725h3.352c0-.307-.061-.582-.184-.823a1.391 1.391 0 0 0-.519-.572 1.452 1.452 0 0 0-.788-.21c-.334 0-.623.083-.867.249a1.635 1.635 0 0 0-.557.64c-.13.262-.196.544-.196.844v.483c0 .412.071.761.213 1.048.145.284.345.5.6.65.256.146.553.22.892.22.22 0 .419-.031.597-.093.18-.063.335-.158.465-.284.13-.127.23-.286.302-.475l.81.227a1.794 1.794 0 0 1-.43.724c-.202.206-.45.367-.746.483-.296.114-.629.17-.998.17Zm4.371-7.387V10h-.838V2.727h.838Zm3.822 7.387c-.525 0-.979-.116-1.36-.348a2.335 2.335 0 0 1-.877-.98c-.204-.422-.305-.912-.305-1.47 0-.56.102-1.052.305-1.478.206-.428.492-.762.86-1.001.369-.242.8-.363 1.292-.363.284 0 .565.048.842.142.277.095.529.25.756.462.227.21.408.49.543.838.135.348.203.777.203 1.286v.355h-4.205v-.725h3.353c0-.307-.062-.582-.185-.823a1.392 1.392 0 0 0-.519-.572 1.452 1.452 0 0 0-.788-.21c-.334 0-.623.083-.866.249a1.635 1.635 0 0 0-.558.64c-.13.262-.195.544-.195.844v.483c0 .412.07.761.213 1.048.144.284.344.5.6.65.256.146.553.22.891.22.22 0 .42-.031.597-.093.18-.063.335-.158.465-.284.13-.127.23-.286.302-.475l.81.227a1.796 1.796 0 0 1-.43.724c-.201.206-.45.367-.746.483-.296.114-.628.17-.998.17Zm5.906-5.569v.71h-2.827v-.71h2.827Zm-2.003-1.306h.838v5.199c0 .236.034.414.103.532a.533.533 0 0 0 .27.235c.111.037.228.056.351.056.093 0 .169-.004.228-.014l.142-.028.17.753a1.705 1.705 0 0 1-.238.064 1.746 1.746 0 0 1-.387.035c-.236 0-.469-.05-.696-.153a1.38 1.38 0 0 1-.561-.465c-.147-.208-.22-.471-.22-.788V3.239Zm5.492 6.875c-.526 0-.979-.116-1.36-.348a2.334 2.334 0 0 1-.877-.98c-.204-.422-.306-.912-.306-1.47 0-.56.102-1.052.306-1.478.206-.428.492-.762.859-1.001.369-.242.8-.363 1.293-.363.284 0 .564.048.841.142.277.095.529.25.757.462.227.21.408.49.543.838.135.348.202.777.202 1.286v.355h-4.204v-.725h3.352c0-.307-.061-.582-.185-.823a1.385 1.385 0 0 0-.518-.572 1.452 1.452 0 0 0-.788-.21c-.334 0-.623.083-.867.249a1.636 1.636 0 0 0-.557.64 1.868 1.868 0 0 0-.196.844v.483c0 .412.071.761.213 1.048.145.284.345.5.6.65.256.146.553.22.892.22.22 0 .419-.031.596-.093.18-.063.335-.158.466-.284.13-.127.23-.286.301-.475l.81.227a1.785 1.785 0 0 1-.43.724 2.089 2.089 0 0 1-.745.483c-.296.114-.629.17-.998.17Zm7.184-7.387V10h-.838V2.727h.838Zm3.14 7.4c-.346 0-.659-.064-.941-.194a1.608 1.608 0 0 1-.671-.572c-.166-.251-.249-.554-.249-.91 0-.312.062-.565.185-.76a1.3 1.3 0 0 1 .493-.46c.206-.112.434-.195.682-.25.251-.056.503-.101.757-.134.331-.043.6-.075.806-.096.208-.024.359-.063.454-.117.097-.055.146-.15.146-.285v-.028c0-.35-.096-.623-.288-.817-.189-.194-.477-.29-.863-.29-.4 0-.714.087-.941.262-.227.175-.387.362-.479.56l-.796-.283c.142-.332.332-.59.568-.774.24-.187.5-.318.782-.39a3.24 3.24 0 0 1 .838-.115c.175 0 .376.022.603.064.23.04.451.125.665.252.215.128.394.321.536.58.142.257.213.603.213 1.036V10h-.838v-.739h-.043a1.47 1.47 0 0 1-.284.38c-.133.135-.309.25-.529.345-.22.095-.489.142-.806.142Zm.128-.752c.331 0 .61-.065.838-.195a1.333 1.333 0 0 0 .696-1.154v-.767c-.036.042-.114.081-.235.117a3.893 3.893 0 0 1-.412.088 18.004 18.004 0 0 1-.802.107 3.211 3.211 0 0 0-.611.139 1.051 1.051 0 0 0-.454.28c-.114.123-.171.291-.171.504 0 .292.108.512.323.66.218.148.494.221.828.221Zm7.765-3.608-.753.213a1.396 1.396 0 0 0-.209-.366c-.09-.12-.213-.22-.37-.298a1.34 1.34 0 0 0-.6-.117c-.333 0-.612.077-.834.23-.22.152-.33.345-.33.58 0 .208.075.372.227.493.151.12.388.221.71.302l.81.199c.487.118.851.3 1.09.543.239.242.359.553.359.934 0 .313-.09.592-.27.838a1.79 1.79 0 0 1-.746.583c-.32.142-.691.213-1.115.213-.556 0-1.017-.121-1.382-.363-.364-.241-.595-.594-.692-1.058l.795-.199c.076.294.219.514.43.66.213.148.491.221.835.221.39 0 .7-.083.93-.249.232-.168.348-.369.348-.603a.633.633 0 0 0-.199-.476c-.132-.13-.336-.227-.611-.291l-.909-.213c-.499-.119-.866-.302-1.101-.55-.232-.252-.348-.565-.348-.942 0-.308.087-.58.26-.817.175-.236.413-.422.713-.557a2.512 2.512 0 0 1 1.03-.203c.54 0 .964.119 1.272.356.31.236.53.549.66.937Zm3.733-1.222v.71h-2.826v-.71h2.826ZM126.8 3.24h.838v5.199c0 .236.035.414.103.532a.537.537 0 0 0 .27.235c.112.037.229.056.352.056.092 0 .168-.004.227-.014l.142-.028.171.753a1.705 1.705 0 0 1-.238.064 1.752 1.752 0 0 1-.387.035c-.237 0-.469-.05-.696-.153a1.38 1.38 0 0 1-.561-.465c-.147-.208-.221-.471-.221-.788V3.239Zm6.914 3.48V10h-.838V4.545h.81v.853h.071c.128-.277.322-.5.582-.668.261-.17.597-.256 1.009-.256.369 0 .692.076.969.228.277.149.493.376.647.682.154.303.231.686.231 1.15V10h-.838V6.59c0-.428-.112-.761-.334-1-.223-.242-.528-.363-.916-.363-.268 0-.507.058-.718.174a1.241 1.241 0 0 0-.493.508 1.674 1.674 0 0 0-.182.81Zm7.228 3.395c-.492 0-.925-.118-1.296-.352a2.39 2.39 0 0 1-.867-.984c-.206-.421-.309-.913-.309-1.477 0-.568.103-1.064.309-1.488.209-.424.497-.753.867-.987.371-.234.804-.352 1.296-.352s.923.118 1.293.352c.371.234.66.563.866.987.208.424.313.92.313 1.488 0 .564-.105 1.056-.313 1.477a2.36 2.36 0 0 1-.866.984c-.37.234-.801.352-1.293.352Zm0-.753c.374 0 .682-.096.923-.288.242-.192.42-.444.536-.756.116-.313.174-.651.174-1.016 0-.364-.058-.704-.174-1.019a1.713 1.713 0 0 0-.536-.764c-.241-.194-.549-.29-.923-.29s-.682.096-.923.29a1.715 1.715 0 0 0-.537.764 2.926 2.926 0 0 0-.174 1.02c0 .364.058.702.174 1.015.116.312.295.564.537.756.241.192.549.288.923.288Zm6.123-4.816v.71h-2.827v-.71h2.827Zm-2.003-1.306h.838v5.199c0 .236.035.414.103.532a.533.533 0 0 0 .27.235c.111.037.229.056.352.056.092 0 .168-.004.227-.014l.142-.028.17.753a1.667 1.667 0 0 1-.238.064 1.74 1.74 0 0 1-.387.035c-.236 0-.468-.05-.696-.153a1.38 1.38 0 0 1-.561-.465c-.146-.208-.22-.471-.22-.788V3.239Zm5.492 6.875c-.526 0-.979-.116-1.36-.348a2.334 2.334 0 0 1-.877-.98c-.204-.422-.306-.912-.306-1.47 0-.56.102-1.052.306-1.478.206-.428.492-.762.859-1.001.369-.242.8-.363 1.293-.363.284 0 .564.048.841.142.277.095.529.25.757.462.227.21.408.49.543.838.135.348.202.777.202 1.286v.355h-4.204v-.725h3.352a1.79 1.79 0 0 0-.184-.823 1.394 1.394 0 0 0-.519-.572 1.45 1.45 0 0 0-.788-.21c-.334 0-.623.083-.867.249a1.636 1.636 0 0 0-.557.64c-.13.262-.196.544-.196.844v.483c0 .412.071.761.213 1.048.145.284.345.5.601.65.255.146.552.22.891.22.22 0 .419-.031.597-.093.179-.063.335-.158.465-.284.13-.127.231-.286.302-.475l.809.227a1.794 1.794 0 0 1-.429.724c-.202.206-.45.367-.746.483-.296.114-.629.17-.998.17ZM180.983 10.114c-.511 0-.952-.121-1.321-.363a2.363 2.363 0 0 1-.852-.997c-.199-.424-.299-.908-.299-1.453 0-.554.102-1.043.306-1.466.206-.427.492-.76.859-.998.369-.242.8-.363 1.293-.363.383 0 .729.071 1.037.213.307.143.56.341.756.597.197.256.318.554.366.895h-.838a1.3 1.3 0 0 0-.426-.66c-.218-.195-.512-.292-.881-.292a1.47 1.47 0 0 0-.859.256 1.663 1.663 0 0 0-.572.714 2.643 2.643 0 0 0-.203 1.076c0 .421.067.788.199 1.1.135.313.325.556.568.729.247.172.536.259.867.259.218 0 .415-.038.593-.114a1.219 1.219 0 0 0 .714-.838h.838a1.95 1.95 0 0 1-.352.87c-.184.256-.429.46-.735.61-.303.15-.656.225-1.058.225Zm4.208-3.395V10h-.838V2.727h.838v2.67h.071c.128-.281.32-.505.575-.67.258-.169.602-.253 1.03-.253.372 0 .697.075.977.224.279.147.496.373.65.678.156.303.234.69.234 1.158V10h-.838V6.59c0-.432-.113-.767-.337-1.004-.223-.24-.532-.359-.927-.359-.275 0-.521.058-.739.174a1.27 1.27 0 0 0-.511.508 1.652 1.652 0 0 0-.185.81Zm6.675 3.409a2.22 2.22 0 0 1-.941-.195 1.62 1.62 0 0 1-.671-.572c-.166-.251-.248-.554-.248-.91 0-.312.061-.565.184-.76.123-.196.288-.35.494-.46a2.59 2.59 0 0 1 .682-.25c.251-.056.503-.101.756-.134.331-.043.6-.075.806-.096.208-.024.36-.063.455-.117.097-.055.145-.15.145-.285v-.028c0-.35-.096-.623-.287-.817-.19-.194-.477-.29-.863-.29-.4 0-.714.087-.941.262a1.555 1.555 0 0 0-.48.56l-.795-.283c.142-.332.331-.59.568-.774.239-.187.499-.318.781-.39.284-.077.564-.115.838-.115.175 0 .377.022.604.064.23.04.451.125.664.252.215.128.394.321.536.58.142.257.213.603.213 1.036V10h-.838v-.739h-.042a1.493 1.493 0 0 1-.284.38 1.64 1.64 0 0 1-.53.345c-.22.095-.488.142-.806.142Zm.128-.753c.332 0 .611-.065.838-.195a1.329 1.329 0 0 0 .696-1.154v-.767c-.035.042-.113.081-.234.117a4.006 4.006 0 0 1-.412.088 18.686 18.686 0 0 1-.803.107 3.2 3.2 0 0 0-.61.139 1.055 1.055 0 0 0-.455.28c-.114.123-.17.291-.17.504 0 .292.107.512.323.66.218.148.493.221.827.221Zm4.74-2.656V10h-.838V4.545h.81v.853h.071c.127-.277.322-.5.582-.668.26-.17.597-.256 1.009-.256.369 0 .692.076.969.228.277.149.492.376.646.682.154.303.231.686.231 1.15V10h-.838V6.59c0-.428-.111-.761-.334-1-.222-.242-.528-.363-.916-.363a1.46 1.46 0 0 0-.717.174 1.243 1.243 0 0 0-.494.508c-.121.223-.181.493-.181.81Zm7.213 5.44c-.405 0-.753-.052-1.044-.156a2.216 2.216 0 0 1-.728-.405 2.217 2.217 0 0 1-.458-.533l.668-.468c.076.099.171.213.287.34.116.13.275.243.476.338.204.097.47.146.799.146.441 0 .804-.107 1.09-.32.287-.213.43-.547.43-1.002V8.991h-.071c-.061.1-.149.223-.263.37a1.484 1.484 0 0 1-.483.387c-.208.111-.49.167-.845.167-.44 0-.835-.104-1.186-.313a2.188 2.188 0 0 1-.827-.909c-.202-.398-.302-.88-.302-1.449 0-.558.098-1.045.295-1.46.196-.416.47-.738.82-.965.35-.23.755-.345 1.214-.345.356 0 .637.06.846.178.21.116.371.249.483.398.113.147.201.267.262.362h.086v-.867h.809v5.611c0 .469-.106.85-.319 1.144a1.82 1.82 0 0 1-.853.65c-.355.14-.75.21-1.186.21Zm-.028-2.997c.336 0 .62-.077.852-.23a1.43 1.43 0 0 0 .529-.665c.121-.289.181-.634.181-1.037 0-.393-.059-.74-.177-1.04a1.566 1.566 0 0 0-.526-.707c-.232-.17-.518-.256-.859-.256-.355 0-.651.09-.888.27-.234.18-.411.422-.529.725a2.8 2.8 0 0 0-.174 1.008c0 .379.059.714.178 1.005.12.289.298.516.532.682.237.163.53.245.881.245Zm6.207.952c-.525 0-.979-.116-1.36-.348a2.334 2.334 0 0 1-.877-.98c-.204-.422-.305-.912-.305-1.47 0-.56.101-1.052.305-1.478.206-.428.492-.762.859-1.001.37-.242.801-.363 1.293-.363.284 0 .565.048.842.142.277.095.529.25.756.462.227.21.408.49.543.838.135.348.203.777.203 1.286v.355h-4.205v-.725h3.352a1.79 1.79 0 0 0-.184-.823 1.394 1.394 0 0 0-.519-.572 1.45 1.45 0 0 0-.788-.21 1.5 1.5 0 0 0-.866.249 1.63 1.63 0 0 0-.558.64 1.88 1.88 0 0 0-.195.844v.483c0 .412.071.761.213 1.048.144.284.344.5.6.65.256.146.553.22.891.22.22 0 .419-.031.597-.093.18-.063.335-.158.465-.284.13-.127.231-.286.302-.475l.81.227a1.807 1.807 0 0 1-.43.724c-.201.206-.45.367-.746.483-.296.114-.628.17-.998.17Zm6.346-.114V4.545h.81v.824h.057c.099-.27.279-.489.539-.657a1.59 1.59 0 0 1 .881-.252 9.233 9.233 0 0 1 .44.014v.853a2.42 2.42 0 0 0-.195-.032 1.92 1.92 0 0 0-.316-.025c-.265 0-.502.056-.71.167a1.22 1.22 0 0 0-.668 1.112V10h-.838Zm5.842.114c-.526 0-.979-.116-1.36-.348a2.328 2.328 0 0 1-.877-.98c-.204-.422-.306-.912-.306-1.47 0-.56.102-1.052.306-1.478.205-.428.492-.762.859-1.001.369-.242.8-.363 1.293-.363.284 0 .564.048.841.142.277.095.529.25.757.462.227.21.408.49.543.838.135.348.202.777.202 1.286v.355h-4.204v-.725h3.352a1.79 1.79 0 0 0-.185-.823 1.385 1.385 0 0 0-.518-.572 1.452 1.452 0 0 0-.788-.21c-.334 0-.623.083-.867.249a1.636 1.636 0 0 0-.557.64 1.868 1.868 0 0 0-.196.844v.483c0 .412.071.761.213 1.048.145.284.345.5.6.65.256.146.553.22.892.22.22 0 .419-.031.596-.093.18-.063.335-.158.466-.284.13-.127.23-.286.301-.475l.81.227a1.785 1.785 0 0 1-.43.724 2.089 2.089 0 0 1-.745.483c-.296.114-.629.17-.998.17Zm3.533 1.931v-7.5h.81v.867h.099c.062-.095.147-.215.256-.362.111-.15.27-.282.476-.398.208-.118.49-.178.845-.178.459 0 .864.115 1.214.345.351.23.624.555.821.976.196.422.294.919.294 1.492 0 .578-.098 1.078-.294 1.502a2.33 2.33 0 0 1-.817.98c-.348.23-.749.345-1.204.345-.35 0-.631-.058-.841-.174a1.563 1.563 0 0 1-.487-.402 5.418 5.418 0 0 1-.263-.376h-.071v2.883h-.838Zm.824-4.772c0 .412.06.775.181 1.09.121.312.297.557.529.735.232.175.516.263.852.263.351 0 .643-.093.878-.277.236-.187.414-.438.532-.753.121-.317.181-.67.181-1.058 0-.384-.059-.73-.177-1.037a1.607 1.607 0 0 0-.529-.735c-.235-.183-.529-.274-.885-.274-.34 0-.627.087-.859.26-.232.17-.407.41-.525.717a2.935 2.935 0 0 0-.178 1.069Zm7.557 2.84c-.526 0-.979-.115-1.36-.347a2.334 2.334 0 0 1-.877-.98c-.204-.422-.306-.912-.306-1.47 0-.56.102-1.052.306-1.478.206-.428.492-.762.859-1.001.369-.242.8-.363 1.293-.363.284 0 .564.048.841.142.277.095.529.25.757.462.227.21.408.49.543.838.135.348.202.777.202 1.286v.355h-4.204v-.725h3.352c0-.307-.061-.582-.185-.823a1.385 1.385 0 0 0-.518-.572 1.452 1.452 0 0 0-.788-.21c-.334 0-.623.083-.867.249a1.636 1.636 0 0 0-.557.64 1.868 1.868 0 0 0-.196.844v.483c0 .412.071.761.213 1.048.145.284.345.5.6.65.256.146.553.22.892.22.22 0 .419-.031.596-.093.18-.063.335-.158.466-.284.13-.127.23-.286.301-.475l.81.227a1.785 1.785 0 0 1-.43.724 2.089 2.089 0 0 1-.745.483c-.296.114-.629.17-.998.17Zm5.905-5.568v.71h-2.826v-.71h2.826Zm-2.002-1.306h.838v5.199c0 .236.034.414.103.532a.535.535 0 0 0 .269.235c.112.037.229.056.352.056.092 0 .168-.004.227-.014l.142-.028.171.753a1.705 1.705 0 0 1-.238.064 1.752 1.752 0 0 1-.387.035c-.237 0-.469-.05-.696-.153a1.38 1.38 0 0 1-.561-.465c-.147-.208-.22-.471-.22-.788V3.239ZM241.394 10V4.545h.838V10h-.838Zm.426-6.364a.594.594 0 0 1-.422-.167.536.536 0 0 1-.174-.4c0-.157.058-.29.174-.402a.594.594 0 0 1 .422-.167c.163 0 .303.056.419.167a.53.53 0 0 1 .178.401.53.53 0 0 1-.178.401.584.584 0 0 1-.419.167Zm4.319.91v.71h-2.827v-.71h2.827Zm-2.003-1.307h.838v5.199c0 .236.035.414.103.532a.533.533 0 0 0 .27.235c.112.037.229.056.352.056.092 0 .168-.004.227-.014l.142-.028.171.753a1.705 1.705 0 0 1-.238.064 1.752 1.752 0 0 1-.387.035c-.237 0-.469-.05-.696-.153a1.38 1.38 0 0 1-.561-.465c-.147-.208-.221-.471-.221-.788V3.239ZM247.4 10V4.545h.838V10h-.838Zm.426-6.364a.598.598 0 0 1-.423-.167.536.536 0 0 1-.174-.4c0-.157.058-.29.174-.402a.598.598 0 0 1 .423-.167c.163 0 .303.056.419.167a.533.533 0 0 1 .178.401c0 .156-.06.29-.178.401a.584.584 0 0 1-.419.167Zm4.163 6.478c-.493 0-.925-.118-1.296-.352a2.39 2.39 0 0 1-.867-.984c-.206-.421-.309-.913-.309-1.477 0-.568.103-1.064.309-1.488.209-.424.497-.753.867-.987.371-.234.803-.352 1.296-.352.492 0 .923.118 1.292.352.372.234.661.563.867.987.208.424.312.92.312 1.488 0 .564-.104 1.056-.312 1.477-.206.422-.495.75-.867.984-.369.234-.8.352-1.292.352Zm0-.753c.374 0 .682-.096.923-.288.242-.192.42-.444.536-.756.116-.313.174-.651.174-1.016 0-.364-.058-.704-.174-1.019a1.713 1.713 0 0 0-.536-.764c-.241-.194-.549-.29-.923-.29s-.682.096-.923.29a1.715 1.715 0 0 0-.537.764 2.926 2.926 0 0 0-.174 1.02c0 .364.058.702.174 1.015.116.312.295.564.537.756.241.192.549.288.923.288Zm4.589-2.642V10h-.838V4.545h.809v.853h.071c.128-.277.322-.5.583-.668.26-.17.596-.256 1.008-.256.37 0 .693.076.97.228.277.149.492.376.646.682.154.303.231.686.231 1.15V10h-.838V6.59c0-.428-.111-.761-.334-1-.223-.242-.528-.363-.916-.363-.268 0-.507.058-.718.174a1.247 1.247 0 0 0-.493.508c-.121.223-.181.493-.181.81Zm10.04 3.395c-.512 0-.952-.121-1.321-.363a2.358 2.358 0 0 1-.853-.997c-.198-.424-.298-.908-.298-1.453 0-.554.102-1.043.306-1.466.205-.427.492-.76.859-.998.369-.242.8-.363 1.293-.363.383 0 .729.071 1.036.213.308.143.56.341.757.597.196.256.318.554.366.895h-.838a1.296 1.296 0 0 0-.427-.66c-.217-.195-.511-.292-.88-.292-.327 0-.613.085-.86.256a1.668 1.668 0 0 0-.571.714 2.643 2.643 0 0 0-.203 1.076c0 .421.066.788.199 1.1.135.313.324.556.568.729.246.172.535.259.867.259.218 0 .415-.038.593-.114.177-.076.328-.184.451-.327.123-.142.21-.312.263-.51h.838a1.95 1.95 0 0 1-.352.87 1.97 1.97 0 0 1-.735.61c-.303.15-.656.224-1.058.224Zm5.586 0c-.493 0-.925-.118-1.297-.352a2.387 2.387 0 0 1-.866-.984c-.206-.421-.309-.913-.309-1.477 0-.568.103-1.064.309-1.488.208-.424.497-.753.866-.987.372-.234.804-.352 1.297-.352.492 0 .923.118 1.292.352.372.234.661.563.867.987.208.424.312.92.312 1.488 0 .564-.104 1.056-.312 1.477-.206.422-.495.75-.867.984-.369.234-.8.352-1.292.352Zm0-.753c.374 0 .681-.096.923-.288.241-.192.42-.444.536-.756.116-.313.174-.651.174-1.016 0-.364-.058-.704-.174-1.019a1.721 1.721 0 0 0-.536-.764c-.242-.194-.549-.29-.923-.29s-.682.096-.924.29c-.241.195-.42.45-.536.764a2.926 2.926 0 0 0-.174 1.02c0 .364.058.702.174 1.015.116.312.295.564.536.756.242.192.55.288.924.288Zm7.188-1.591V4.545h.838V10h-.838v-.923h-.057a1.788 1.788 0 0 1-.596.706c-.27.192-.611.288-1.023.288-.341 0-.644-.075-.909-.224a1.563 1.563 0 0 1-.625-.682c-.152-.305-.227-.69-.227-1.154V4.545h.838v3.41c0 .397.111.715.333.951.225.237.512.355.86.355.208 0 .42-.053.635-.16a1.38 1.38 0 0 0 .547-.49c.149-.22.224-.5.224-.841Zm3.211-1.051V10h-.838V4.545h.81v.853h.071c.128-.277.322-.5.582-.668.261-.17.597-.256 1.009-.256.369 0 .692.076.969.228.277.149.493.376.646.682.154.303.231.686.231 1.15V10h-.838V6.59c0-.428-.111-.761-.334-1-.222-.242-.528-.363-.916-.363-.267 0-.506.058-.717.174a1.25 1.25 0 0 0-.494.508c-.12.223-.181.493-.181.81Zm7.384-2.174v.71h-2.827v-.71h2.827Zm-2.003-1.306h.838v5.199c0 .236.034.414.103.532a.533.533 0 0 0 .27.235c.111.037.228.056.352.056.092 0 .168-.004.227-.014l.142-.028.17.753a1.705 1.705 0 0 1-.238.064 1.74 1.74 0 0 1-.387.035c-.236 0-.468-.05-.696-.153a1.38 1.38 0 0 1-.561-.465c-.147-.208-.22-.471-.22-.788V3.239Z" fill="#000"/></svg>