<svg width="291" height="128" viewBox="0 0 291 128" fill="none" xmlns="http://www.w3.org/2000/svg">
<mask id="path-1-inside-1_2_30" fill="white">
<path d="M27 21H16H5C2.23858 21 0 23.2386 0 26V57C0 59.7614 2.23858 62 5 62H11.5V71L11 109C11 111.761 13.2386 114 16 114H54C56.7614 114 59 111.761 59 109V26C59 23.2386 56.7614 21 54 21H27Z"/>
</mask>
<path d="M11 109L10 108.987V109H11ZM11.5 62H12.5V61H11.5V62ZM11.5 71L12.5 71.0132V71H11.5ZM16 22H27V20H16V22ZM27 22H54V20H27V22ZM58 26V109H60V26H58ZM54 113H16V115H54V113ZM16 113C13.7909 113 12 111.209 12 109H10C10 112.314 12.6863 115 16 115V113ZM58 109C58 111.209 56.2091 113 54 113V115C57.3137 115 60 112.314 60 109H58ZM54 22C56.2091 22 58 23.7909 58 26H60C60 22.6863 57.3137 20 54 20V22ZM5 22H16V20H5V22ZM1 57V26H-1V57H1ZM5 61C2.79086 61 1 59.2091 1 57H-1C-1 60.3137 1.68629 63 5 63V61ZM5 20C1.68629 20 -1 22.6863 -1 26H1C1 23.7909 2.79086 22 5 22V20ZM5 63H11.5V61H5V63ZM10.5 62V71H12.5V62H10.5ZM10.5001 70.9868L10.0001 108.987L11.9999 109.013L12.4999 71.0132L10.5001 70.9868Z" fill="black" mask="url(#path-1-inside-1_2_30)"/>
<path d="M43 47V47.5H43.5V47H43ZM32.6464 46.6464C32.4512 46.8417 32.4512 47.1583 32.6464 47.3536L35.8284 50.5355C36.0237 50.7308 36.3403 50.7308 36.5355 50.5355C36.7308 50.3403 36.7308 50.0237 36.5355 49.8284L33.7071 47L36.5355 44.1716C36.7308 43.9763 36.7308 43.6597 36.5355 43.4645C36.3403 43.2692 36.0237 43.2692 35.8284 43.4645L32.6464 46.6464ZM43.5 40C43.5 39.7239 43.2761 39.5 43 39.5C42.7239 39.5 42.5 39.7239 42.5 40H43.5ZM43 46.5H33V47.5H43V46.5ZM43.5 47V40H42.5V47H43.5Z" fill="black"/>
<rect x="80.5" y="21.5" width="75" height="40" rx="4.5" stroke="black"/>
<path d="M136.3 43.5H143C145.485 43.5 147.5 45.5147 147.5 48V52C147.5 54.4853 145.485 56.5 143 56.5H136.3C134.986 56.5 133.738 55.926 132.883 54.9286L131.169 52.9286C129.724 51.2434 129.724 48.7566 131.169 47.0714L132.883 45.0714C133.738 44.074 134.986 43.5 136.3 43.5Z" stroke="black"/>
<line x1="137.354" y1="47.3536" x2="142.303" y2="52.3033" stroke="black"/>
<line x1="142.303" y1="47.3536" x2="137.354" y2="52.3033" stroke="black"/>
<rect x="178.5" y="21.5" width="50" height="50" rx="4.5" stroke="black"/>
<path d="M203.354 34.6464C203.158 34.4512 202.842 34.4512 202.646 34.6464L199.464 37.8284C199.269 38.0237 199.269 38.3403 199.464 38.5355C199.66 38.7308 199.976 38.7308 200.172 38.5355L203 35.7071L205.828 38.5355C206.024 38.7308 206.34 38.7308 206.536 38.5355C206.731 38.3403 206.731 38.0237 206.536 37.8284L203.354 34.6464ZM203.5 58V35H202.5V58H203.5Z" fill="black"/>
<rect x="228.5" y="127.5" width="50" height="50" rx="4.5" transform="rotate(-180 228.5 127.5)" stroke="black"/>
<path d="M202.646 114.354C202.842 114.549 203.158 114.549 203.354 114.354L206.536 111.172C206.731 110.976 206.731 110.66 206.536 110.464C206.34 110.269 206.024 110.269 205.828 110.464L203 113.293L200.172 110.464C199.976 110.269 199.66 110.269 199.464 110.464C199.269 110.66 199.269 110.976 199.464 111.172L202.646 114.354ZM202.5 91V114H203.5V91H202.5Z" fill="black"/>
<path d="M1.60511 6.71875V10H0.767045V4.54545H1.5767V5.39773H1.64773C1.77557 5.12074 1.9697 4.8982 2.23011 4.73011C2.49053 4.55966 2.8267 4.47443 3.23864 4.47443C3.60795 4.47443 3.93111 4.55019 4.2081 4.7017C4.48509 4.85085 4.70052 5.07812 4.8544 5.38352C5.00829 5.68655 5.08523 6.07008 5.08523 6.53409V10H4.24716V6.59091C4.24716 6.16241 4.13589 5.8286 3.91335 5.58949C3.69081 5.34801 3.38542 5.22727 2.99716 5.22727C2.72964 5.22727 2.49053 5.28527 2.27983 5.40128C2.0715 5.51728 1.90696 5.68655 1.78622 5.90909C1.66548 6.13163 1.60511 6.40152 1.60511 6.71875ZM8.90359 10.1136C8.37802 10.1136 7.92466 9.99763 7.5435 9.76562C7.16471 9.53125 6.87234 9.20455 6.66637 8.78551C6.46277 8.36411 6.36097 7.87405 6.36097 7.31534C6.36097 6.75663 6.46277 6.2642 6.66637 5.83807C6.87234 5.40956 7.15879 5.07576 7.52575 4.83665C7.89506 4.59517 8.32594 4.47443 8.81836 4.47443C9.10245 4.47443 9.38299 4.52178 9.65998 4.61648C9.93697 4.71117 10.1891 4.86506 10.4164 5.07812C10.6436 5.28883 10.8248 5.56818 10.9597 5.91619C11.0946 6.2642 11.1621 6.69271 11.1621 7.2017V7.55682H6.95756V6.83239H10.3098C10.3098 6.52462 10.2483 6.25 10.1252 6.00852C10.0044 5.76705 9.83162 5.57647 9.60671 5.43679C9.38417 5.29711 9.12139 5.22727 8.81836 5.22727C8.48455 5.22727 8.19573 5.31013 7.95188 5.47585C7.7104 5.6392 7.52456 5.85227 7.39435 6.11506C7.26415 6.37784 7.19904 6.65956 7.19904 6.96023V7.44318C7.19904 7.85511 7.27006 8.20431 7.41211 8.49077C7.55652 8.77486 7.75657 8.99148 8.01225 9.14062C8.26793 9.28741 8.56505 9.3608 8.90359 9.3608C9.12376 9.3608 9.32262 9.33002 9.50018 9.26847C9.6801 9.20455 9.83517 9.10985 9.96538 8.98438C10.0956 8.85653 10.1962 8.69792 10.2672 8.50852L11.0769 8.7358C10.9917 9.01042 10.8484 9.25189 10.6472 9.46023C10.446 9.66619 10.1974 9.82718 9.90146 9.94318C9.60553 10.0568 9.2729 10.1136 8.90359 10.1136ZM13.6728 10L12.0108 4.54545H12.8915L14.0705 8.72159H14.1273L15.2921 4.54545H16.187L17.3375 8.70739H17.3944L18.5733 4.54545H19.454L17.7921 10H16.9682L15.775 5.80966H15.6898L14.4966 10H13.6728ZM24.2125 2.72727V10H23.3745V2.72727H24.2125ZM25.7475 10V4.54545H26.5856V10H25.7475ZM26.1737 3.63636C26.0103 3.63636 25.8694 3.58073 25.7511 3.46946C25.6351 3.35819 25.5771 3.22443 25.5771 3.06818C25.5771 2.91193 25.6351 2.77817 25.7511 2.6669C25.8694 2.55563 26.0103 2.5 26.1737 2.5C26.337 2.5 26.4767 2.55563 26.5927 2.6669C26.7111 2.77817 26.7702 2.91193 26.7702 3.06818C26.7702 3.22443 26.7111 3.35819 26.5927 3.46946C26.4767 3.58073 26.337 3.63636 26.1737 3.63636ZM28.9586 6.71875V10H28.1206V4.54545H28.9302V5.39773H29.0012C29.1291 5.12074 29.3232 4.8982 29.5836 4.73011C29.844 4.55966 30.1802 4.47443 30.5922 4.47443C30.9615 4.47443 31.2846 4.55019 31.5616 4.7017C31.8386 4.85085 32.054 5.07812 32.2079 5.38352C32.3618 5.68655 32.4387 6.07008 32.4387 6.53409V10H31.6007V6.59091C31.6007 6.16241 31.4894 5.8286 31.2669 5.58949C31.0443 5.34801 30.7389 5.22727 30.3507 5.22727C30.0832 5.22727 29.844 5.28527 29.6333 5.40128C29.425 5.51728 29.2605 5.68655 29.1397 5.90909C29.019 6.13163 28.9586 6.40152 28.9586 6.71875ZM36.2571 10.1136C35.7315 10.1136 35.2782 9.99763 34.897 9.76562C34.5182 9.53125 34.2259 9.20455 34.0199 8.78551C33.8163 8.36411 33.7145 7.87405 33.7145 7.31534C33.7145 6.75663 33.8163 6.2642 34.0199 5.83807C34.2259 5.40956 34.5123 5.07576 34.8793 4.83665C35.2486 4.59517 35.6795 4.47443 36.1719 4.47443C36.456 4.47443 36.7365 4.52178 37.0135 4.61648C37.2905 4.71117 37.5426 4.86506 37.7699 5.07812C37.9972 5.28883 38.1783 5.56818 38.3132 5.91619C38.4482 6.2642 38.5156 6.69271 38.5156 7.2017V7.55682H34.3111V6.83239H37.6634C37.6634 6.52462 37.6018 6.25 37.4787 6.00852C37.358 5.76705 37.1851 5.57647 36.9602 5.43679C36.7377 5.29711 36.4749 5.22727 36.1719 5.22727C35.8381 5.22727 35.5492 5.31013 35.3054 5.47585C35.0639 5.6392 34.8781 5.85227 34.7479 6.11506C34.6177 6.37784 34.5526 6.65956 34.5526 6.96023V7.44318C34.5526 7.85511 34.6236 8.20431 34.7656 8.49077C34.91 8.77486 35.1101 8.99148 35.3658 9.14062C35.6214 9.28741 35.9186 9.3608 36.2571 9.3608C36.4773 9.3608 36.6761 9.33002 36.8537 9.26847C37.0336 9.20455 37.1887 9.10985 37.3189 8.98438C37.4491 8.85653 37.5497 8.69792 37.6207 8.50852L38.4304 8.7358C38.3452 9.01042 38.2019 9.25189 38.0007 9.46023C37.7995 9.66619 37.5509 9.82718 37.255 9.94318C36.959 10.0568 36.6264 10.1136 36.2571 10.1136Z" fill="black"/>
<path d="M82.8267 10.1136C82.3722 10.1136 81.9709 9.99882 81.6229 9.76918C81.2749 9.53717 81.0026 9.21046 80.8061 8.78906C80.6096 8.36529 80.5114 7.86458 80.5114 7.28693C80.5114 6.71402 80.6096 6.21686 80.8061 5.79545C81.0026 5.37405 81.276 5.04853 81.6264 4.81889C81.9768 4.58925 82.3816 4.47443 82.8409 4.47443C83.196 4.47443 83.4766 4.53362 83.6825 4.65199C83.8909 4.76799 84.0495 4.90057 84.1584 5.04972C84.2696 5.1965 84.3561 5.31723 84.4176 5.41193H84.4886V2.72727H85.3267V10H84.517V9.16193H84.4176C84.3561 9.26136 84.2685 9.38684 84.1548 9.53835C84.0412 9.6875 83.879 9.82126 83.6683 9.93963C83.4576 10.0556 83.1771 10.1136 82.8267 10.1136ZM82.9403 9.3608C83.2765 9.3608 83.5606 9.2732 83.7926 9.09801C84.0246 8.92045 84.201 8.67543 84.3217 8.36293C84.4425 8.04806 84.5028 7.68466 84.5028 7.27273C84.5028 6.86553 84.4437 6.50923 84.3253 6.20384C84.2069 5.89607 84.0317 5.65696 83.7997 5.48651C83.5677 5.31368 83.2813 5.22727 82.9403 5.22727C82.5852 5.22727 82.2893 5.31842 82.0526 5.50071C81.8182 5.68063 81.6418 5.92566 81.5234 6.2358C81.4074 6.54356 81.3494 6.8892 81.3494 7.27273C81.3494 7.66098 81.4086 8.01373 81.527 8.33097C81.6477 8.64583 81.8253 8.89678 82.0597 9.08381C82.2964 9.26847 82.59 9.3608 82.9403 9.3608ZM89.2649 10.1136C88.7393 10.1136 88.286 9.99763 87.9048 9.76562C87.526 9.53125 87.2337 9.20455 87.0277 8.78551C86.8241 8.36411 86.7223 7.87405 86.7223 7.31534C86.7223 6.75663 86.8241 6.2642 87.0277 5.83807C87.2337 5.40956 87.5201 5.07576 87.8871 4.83665C88.2564 4.59517 88.6873 4.47443 89.1797 4.47443C89.4638 4.47443 89.7443 4.52178 90.0213 4.61648C90.2983 4.71117 90.5504 4.86506 90.7777 5.07812C91.005 5.28883 91.1861 5.56818 91.321 5.91619C91.456 6.2642 91.5234 6.69271 91.5234 7.2017V7.55682H87.3189V6.83239H90.6712C90.6712 6.52462 90.6096 6.25 90.4865 6.00852C90.3658 5.76705 90.1929 5.57647 89.968 5.43679C89.7455 5.29711 89.4827 5.22727 89.1797 5.22727C88.8459 5.22727 88.5571 5.31013 88.3132 5.47585C88.0717 5.6392 87.8859 5.85227 87.7557 6.11506C87.6255 6.37784 87.5604 6.65956 87.5604 6.96023V7.44318C87.5604 7.85511 87.6314 8.20431 87.7734 8.49077C87.9179 8.77486 88.1179 8.99148 88.3736 9.14062C88.6293 9.28741 88.9264 9.3608 89.2649 9.3608C89.4851 9.3608 89.6839 9.33002 89.8615 9.26847C90.0414 9.20455 90.1965 9.10985 90.3267 8.98438C90.4569 8.85653 90.5575 8.69792 90.6286 8.50852L91.4382 8.7358C91.353 9.01042 91.2098 9.25189 91.0085 9.46023C90.8073 9.66619 90.5587 9.82718 90.2628 9.94318C89.9669 10.0568 89.6342 10.1136 89.2649 10.1136ZM93.6364 2.72727V10H92.7983V2.72727H93.6364ZM97.4583 10.1136C96.9327 10.1136 96.4793 9.99763 96.0982 9.76562C95.7194 9.53125 95.427 9.20455 95.2211 8.78551C95.0175 8.36411 94.9157 7.87405 94.9157 7.31534C94.9157 6.75663 95.0175 6.2642 95.2211 5.83807C95.427 5.40956 95.7135 5.07576 96.0804 4.83665C96.4498 4.59517 96.8806 4.47443 97.373 4.47443C97.6571 4.47443 97.9377 4.52178 98.2147 4.61648C98.4917 4.71117 98.7438 4.86506 98.9711 5.07812C99.1983 5.28883 99.3794 5.56818 99.5144 5.91619C99.6493 6.2642 99.7168 6.69271 99.7168 7.2017V7.55682H95.5123V6.83239H98.8645C98.8645 6.52462 98.803 6.25 98.6799 6.00852C98.5591 5.76705 98.3863 5.57647 98.1614 5.43679C97.9389 5.29711 97.6761 5.22727 97.373 5.22727C97.0392 5.22727 96.7504 5.31013 96.5066 5.47585C96.2651 5.6392 96.0792 5.85227 95.949 6.11506C95.8188 6.37784 95.7537 6.65956 95.7537 6.96023V7.44318C95.7537 7.85511 95.8248 8.20431 95.9668 8.49077C96.1112 8.77486 96.3113 8.99148 96.5669 9.14062C96.8226 9.28741 97.1197 9.3608 97.4583 9.3608C97.6784 9.3608 97.8773 9.33002 98.0549 9.26847C98.2348 9.20455 98.3899 9.10985 98.5201 8.98438C98.6503 8.85653 98.7509 8.69792 98.8219 8.50852L99.6316 8.7358C99.5463 9.01042 99.4031 9.25189 99.2019 9.46023C99.0007 9.66619 98.7521 9.82718 98.4561 9.94318C98.1602 10.0568 97.8276 10.1136 97.4583 10.1136ZM103.364 4.54545V5.25568H100.537V4.54545H103.364ZM101.361 3.23864H102.199V8.4375C102.199 8.67424 102.233 8.8518 102.302 8.97017C102.373 9.08617 102.463 9.1643 102.572 9.20455C102.683 9.24242 102.8 9.26136 102.923 9.26136C103.016 9.26136 103.092 9.25663 103.151 9.24716C103.21 9.23532 103.257 9.22585 103.293 9.21875L103.463 9.97159C103.406 9.9929 103.327 10.0142 103.225 10.0355C103.124 10.0592 102.994 10.071 102.838 10.071C102.602 10.071 102.369 10.0201 102.142 9.91832C101.917 9.81652 101.73 9.66146 101.581 9.45312C101.434 9.24479 101.361 8.98201 101.361 8.66477V3.23864ZM106.853 10.1136C106.327 10.1136 105.874 9.99763 105.493 9.76562C105.114 9.53125 104.822 9.20455 104.616 8.78551C104.412 8.36411 104.31 7.87405 104.31 7.31534C104.31 6.75663 104.412 6.2642 104.616 5.83807C104.822 5.40956 105.108 5.07576 105.475 4.83665C105.844 4.59517 106.275 4.47443 106.768 4.47443C107.052 4.47443 107.332 4.52178 107.609 4.61648C107.886 4.71117 108.138 4.86506 108.366 5.07812C108.593 5.28883 108.774 5.56818 108.909 5.91619C109.044 6.2642 109.111 6.69271 109.111 7.2017V7.55682H104.907V6.83239H108.259C108.259 6.52462 108.198 6.25 108.074 6.00852C107.954 5.76705 107.781 5.57647 107.556 5.43679C107.333 5.29711 107.071 5.22727 106.768 5.22727C106.434 5.22727 106.145 5.31013 105.901 5.47585C105.66 5.6392 105.474 5.85227 105.344 6.11506C105.213 6.37784 105.148 6.65956 105.148 6.96023V7.44318C105.148 7.85511 105.219 8.20431 105.361 8.49077C105.506 8.77486 105.706 8.99148 105.961 9.14062C106.217 9.28741 106.514 9.3608 106.853 9.3608C107.073 9.3608 107.272 9.33002 107.449 9.26847C107.629 9.20455 107.784 9.10985 107.915 8.98438C108.045 8.85653 108.145 8.69792 108.216 8.50852L109.026 8.7358C108.941 9.01042 108.798 9.25189 108.596 9.46023C108.395 9.66619 108.147 9.82718 107.851 9.94318C107.555 10.0568 107.222 10.1136 106.853 10.1136ZM114.037 2.72727V10H113.199V2.72727H114.037ZM117.177 10.1278C116.831 10.1278 116.518 10.0627 116.236 9.93253C115.954 9.79995 115.73 9.60938 115.565 9.3608C115.399 9.10985 115.316 8.80682 115.316 8.4517C115.316 8.1392 115.378 7.88589 115.501 7.69176C115.624 7.49527 115.788 7.34138 115.994 7.23011C116.2 7.11884 116.428 7.03598 116.676 6.98153C116.927 6.92472 117.179 6.87973 117.433 6.84659C117.764 6.80398 118.033 6.77202 118.239 6.75071C118.447 6.72704 118.598 6.68797 118.693 6.63352C118.79 6.57907 118.839 6.48437 118.839 6.34943V6.32102C118.839 5.97064 118.743 5.69839 118.551 5.50426C118.362 5.31013 118.074 5.21307 117.688 5.21307C117.288 5.21307 116.974 5.30066 116.747 5.47585C116.52 5.65104 116.36 5.83807 116.268 6.03693L115.472 5.75284C115.614 5.4214 115.804 5.16335 116.04 4.97869C116.28 4.79167 116.54 4.66146 116.822 4.58807C117.106 4.51231 117.385 4.47443 117.66 4.47443C117.835 4.47443 118.036 4.49574 118.263 4.53835C118.493 4.5786 118.714 4.66264 118.928 4.79048C119.143 4.91832 119.322 5.11127 119.464 5.36932C119.606 5.62737 119.677 5.97301 119.677 6.40625V10H118.839V9.26136H118.796C118.739 9.37973 118.645 9.50639 118.512 9.64134C118.379 9.77628 118.203 9.8911 117.983 9.9858C117.763 10.0805 117.494 10.1278 117.177 10.1278ZM117.305 9.375C117.636 9.375 117.915 9.3099 118.143 9.17969C118.372 9.04948 118.545 8.88139 118.661 8.67543C118.78 8.46946 118.839 8.25284 118.839 8.02557V7.25852C118.803 7.30114 118.725 7.3402 118.604 7.37571C118.486 7.40885 118.349 7.43845 118.192 7.46449C118.039 7.48816 117.888 7.50947 117.741 7.52841C117.597 7.54498 117.48 7.55919 117.39 7.57102C117.172 7.59943 116.969 7.6456 116.779 7.70952C116.592 7.77107 116.441 7.86458 116.325 7.99006C116.211 8.11316 116.154 8.28125 116.154 8.49432C116.154 8.78551 116.262 9.00568 116.477 9.15483C116.695 9.30161 116.971 9.375 117.305 9.375ZM125.07 5.76705L124.317 5.98011C124.27 5.85464 124.2 5.73272 124.108 5.61435C124.018 5.49361 123.895 5.39418 123.738 5.31605C123.582 5.23793 123.382 5.19886 123.138 5.19886C122.805 5.19886 122.526 5.2758 122.304 5.42969C122.084 5.5812 121.974 5.77415 121.974 6.00852C121.974 6.21686 122.049 6.38139 122.201 6.50213C122.352 6.62287 122.589 6.72348 122.911 6.80398L123.721 7.00284C124.208 7.12121 124.572 7.30232 124.811 7.54616C125.05 7.78764 125.17 8.09896 125.17 8.48011C125.17 8.79261 125.08 9.07197 124.9 9.31818C124.722 9.56439 124.474 9.75852 124.154 9.90057C123.834 10.0426 123.463 10.1136 123.039 10.1136C122.483 10.1136 122.022 9.9929 121.657 9.75142C121.293 9.50994 121.062 9.1572 120.965 8.69318L121.76 8.49432C121.836 8.78788 121.979 9.00805 122.19 9.15483C122.403 9.30161 122.681 9.375 123.025 9.375C123.415 9.375 123.725 9.29214 123.955 9.12642C124.187 8.95833 124.303 8.7571 124.303 8.52273C124.303 8.33333 124.237 8.17472 124.104 8.04688C123.972 7.91667 123.768 7.8196 123.493 7.75568L122.584 7.54261C122.085 7.42424 121.718 7.24077 121.483 6.99219C121.251 6.74124 121.135 6.42756 121.135 6.05114C121.135 5.74337 121.222 5.47112 121.395 5.23438C121.57 4.99763 121.808 4.81179 122.108 4.67685C122.412 4.5419 122.755 4.47443 123.138 4.47443C123.678 4.47443 124.102 4.5928 124.41 4.82955C124.72 5.06629 124.94 5.37879 125.07 5.76705ZM128.803 4.54545V5.25568H125.977V4.54545H128.803ZM126.8 3.23864H127.638V8.4375C127.638 8.67424 127.673 8.8518 127.741 8.97017C127.813 9.08617 127.902 9.1643 128.011 9.20455C128.123 9.24242 128.24 9.26136 128.363 9.26136C128.455 9.26136 128.531 9.25663 128.59 9.24716C128.649 9.23532 128.697 9.22585 128.732 9.21875L128.903 9.97159C128.846 9.9929 128.767 10.0142 128.665 10.0355C128.563 10.0592 128.434 10.071 128.278 10.071C128.041 10.071 127.809 10.0201 127.582 9.91832C127.357 9.81652 127.17 9.66146 127.021 9.45312C126.874 9.24479 126.8 8.98201 126.8 8.66477V3.23864ZM133.714 6.71875V10H132.876V4.54545H133.686V5.39773H133.757C133.885 5.12074 134.079 4.8982 134.339 4.73011C134.6 4.55966 134.936 4.47443 135.348 4.47443C135.717 4.47443 136.04 4.55019 136.317 4.7017C136.594 4.85085 136.81 5.07812 136.964 5.38352C137.118 5.68655 137.195 6.07008 137.195 6.53409V10H136.357V6.59091C136.357 6.16241 136.245 5.8286 136.023 5.58949C135.8 5.34801 135.495 5.22727 135.107 5.22727C134.839 5.22727 134.6 5.28527 134.389 5.40128C134.181 5.51728 134.016 5.68655 133.896 5.90909C133.775 6.13163 133.714 6.40152 133.714 6.71875ZM140.942 10.1136C140.45 10.1136 140.017 9.99645 139.646 9.76207C139.276 9.5277 138.988 9.19981 138.779 8.77841C138.573 8.35701 138.47 7.86458 138.47 7.30114C138.47 6.73295 138.573 6.23698 138.779 5.81321C138.988 5.38944 139.276 5.06037 139.646 4.82599C140.017 4.59162 140.45 4.47443 140.942 4.47443C141.434 4.47443 141.865 4.59162 142.235 4.82599C142.606 5.06037 142.895 5.38944 143.101 5.81321C143.309 6.23698 143.414 6.73295 143.414 7.30114C143.414 7.86458 143.309 8.35701 143.101 8.77841C142.895 9.19981 142.606 9.5277 142.235 9.76207C141.865 9.99645 141.434 10.1136 140.942 10.1136ZM140.942 9.3608C141.316 9.3608 141.624 9.26491 141.865 9.07315C142.107 8.88139 142.285 8.62926 142.401 8.31676C142.517 8.00426 142.575 7.66572 142.575 7.30114C142.575 6.93655 142.517 6.59683 142.401 6.28196C142.285 5.96709 142.107 5.71259 141.865 5.51847C141.624 5.32434 141.316 5.22727 140.942 5.22727C140.568 5.22727 140.26 5.32434 140.019 5.51847C139.777 5.71259 139.598 5.96709 139.482 6.28196C139.366 6.59683 139.308 6.93655 139.308 7.30114C139.308 7.66572 139.366 8.00426 139.482 8.31676C139.598 8.62926 139.777 8.88139 140.019 9.07315C140.26 9.26491 140.568 9.3608 140.942 9.3608ZM147.065 4.54545V5.25568H144.238V4.54545H147.065ZM145.062 3.23864H145.9V8.4375C145.9 8.67424 145.935 8.8518 146.003 8.97017C146.074 9.08617 146.164 9.1643 146.273 9.20455C146.384 9.24242 146.502 9.26136 146.625 9.26136C146.717 9.26136 146.793 9.25663 146.852 9.24716C146.911 9.23532 146.958 9.22585 146.994 9.21875L147.164 9.97159C147.108 9.9929 147.028 10.0142 146.926 10.0355C146.825 10.0592 146.696 10.071 146.539 10.071C146.303 10.071 146.071 10.0201 145.843 9.91832C145.618 9.81652 145.431 9.66146 145.282 9.45312C145.136 9.24479 145.062 8.98201 145.062 8.66477V3.23864ZM150.554 10.1136C150.028 10.1136 149.575 9.99763 149.194 9.76562C148.815 9.53125 148.523 9.20455 148.317 8.78551C148.113 8.36411 148.011 7.87405 148.011 7.31534C148.011 6.75663 148.113 6.2642 148.317 5.83807C148.523 5.40956 148.809 5.07576 149.176 4.83665C149.545 4.59517 149.976 4.47443 150.469 4.47443C150.753 4.47443 151.033 4.52178 151.31 4.61648C151.587 4.71117 151.839 4.86506 152.067 5.07812C152.294 5.28883 152.475 5.56818 152.61 5.91619C152.745 6.2642 152.812 6.69271 152.812 7.2017V7.55682H148.608V6.83239H151.96C151.96 6.52462 151.899 6.25 151.776 6.00852C151.655 5.76705 151.482 5.57647 151.257 5.43679C151.035 5.29711 150.772 5.22727 150.469 5.22727C150.135 5.22727 149.846 5.31013 149.602 5.47585C149.361 5.6392 149.175 5.85227 149.045 6.11506C148.915 6.37784 148.849 6.65956 148.849 6.96023V7.44318C148.849 7.85511 148.92 8.20431 149.062 8.49077C149.207 8.77486 149.407 8.99148 149.663 9.14062C149.918 9.28741 150.215 9.3608 150.554 9.3608C150.774 9.3608 150.973 9.33002 151.151 9.26847C151.33 9.20455 151.486 9.10985 151.616 8.98438C151.746 8.85653 151.847 8.69792 151.918 8.50852L152.727 8.7358C152.642 9.01042 152.499 9.25189 152.298 9.46023C152.096 9.66619 151.848 9.82718 151.552 9.94318C151.256 10.0568 150.923 10.1136 150.554 10.1136Z" fill="black"/>
<path d="M180.983 10.1136C180.472 10.1136 180.031 9.9929 179.662 9.75142C179.293 9.50994 179.009 9.17732 178.81 8.75355C178.611 8.32978 178.511 7.84564 178.511 7.30114C178.511 6.74716 178.613 6.25829 178.817 5.83452C179.023 5.40838 179.309 5.07576 179.676 4.83665C180.045 4.59517 180.476 4.47443 180.969 4.47443C181.352 4.47443 181.698 4.54545 182.006 4.6875C182.313 4.82955 182.566 5.02841 182.762 5.28409C182.959 5.53977 183.08 5.83807 183.128 6.17898H182.29C182.226 5.9304 182.084 5.71023 181.864 5.51847C181.646 5.32434 181.352 5.22727 180.983 5.22727C180.656 5.22727 180.37 5.3125 180.124 5.48295C179.88 5.65104 179.689 5.88897 179.552 6.19673C179.417 6.50213 179.349 6.8608 179.349 7.27273C179.349 7.69413 179.416 8.06108 179.548 8.37358C179.683 8.68608 179.873 8.92874 180.116 9.10156C180.363 9.27438 180.652 9.3608 180.983 9.3608C181.201 9.3608 181.398 9.32292 181.576 9.24716C181.754 9.1714 181.904 9.0625 182.027 8.92045C182.15 8.77841 182.238 8.60795 182.29 8.40909H183.128C183.08 8.73106 182.963 9.02107 182.776 9.27912C182.592 9.5348 182.347 9.7384 182.041 9.88991C181.738 10.0391 181.385 10.1136 180.983 10.1136ZM185.191 6.71875V10H184.353V2.72727H185.191V5.39773H185.262C185.39 5.116 185.582 4.89228 185.837 4.72656C186.095 4.55848 186.439 4.47443 186.867 4.47443C187.239 4.47443 187.564 4.54901 187.844 4.69815C188.123 4.84493 188.34 5.07102 188.494 5.37642C188.65 5.67945 188.728 6.06534 188.728 6.53409V10H187.89V6.59091C187.89 6.15767 187.777 5.82268 187.553 5.58594C187.33 5.34683 187.021 5.22727 186.626 5.22727C186.351 5.22727 186.105 5.28527 185.887 5.40128C185.672 5.51728 185.501 5.68655 185.376 5.90909C185.253 6.13163 185.191 6.40152 185.191 6.71875ZM191.866 10.1278C191.521 10.1278 191.207 10.0627 190.925 9.93253C190.644 9.79995 190.42 9.60938 190.254 9.3608C190.088 9.10985 190.006 8.80682 190.006 8.4517C190.006 8.1392 190.067 7.88589 190.19 7.69176C190.313 7.49527 190.478 7.34138 190.684 7.23011C190.89 7.11884 191.117 7.03598 191.366 6.98153C191.617 6.92472 191.869 6.87973 192.122 6.84659C192.453 6.80398 192.722 6.77202 192.928 6.75071C193.136 6.72704 193.288 6.68797 193.383 6.63352C193.48 6.57907 193.528 6.48437 193.528 6.34943V6.32102C193.528 5.97064 193.432 5.69839 193.241 5.50426C193.051 5.31013 192.764 5.21307 192.378 5.21307C191.978 5.21307 191.664 5.30066 191.437 5.47585C191.209 5.65104 191.05 5.83807 190.957 6.03693L190.162 5.75284C190.304 5.4214 190.493 5.16335 190.73 4.97869C190.969 4.79167 191.229 4.66146 191.511 4.58807C191.795 4.51231 192.075 4.47443 192.349 4.47443C192.524 4.47443 192.726 4.49574 192.953 4.53835C193.183 4.5786 193.404 4.66264 193.617 4.79048C193.832 4.91832 194.011 5.11127 194.153 5.36932C194.295 5.62737 194.366 5.97301 194.366 6.40625V10H193.528V9.26136H193.486C193.429 9.37973 193.334 9.50639 193.202 9.64134C193.069 9.77628 192.893 9.8911 192.672 9.9858C192.452 10.0805 192.184 10.1278 191.866 10.1278ZM191.994 9.375C192.326 9.375 192.605 9.3099 192.832 9.17969C193.062 9.04948 193.235 8.88139 193.351 8.67543C193.469 8.46946 193.528 8.25284 193.528 8.02557V7.25852C193.493 7.30114 193.415 7.3402 193.294 7.37571C193.175 7.40885 193.038 7.43845 192.882 7.46449C192.728 7.48816 192.578 7.50947 192.431 7.52841C192.287 7.54498 192.169 7.55919 192.079 7.57102C191.862 7.59943 191.658 7.6456 191.469 7.70952C191.282 7.77107 191.13 7.86458 191.014 7.99006C190.9 8.11316 190.844 8.28125 190.844 8.49432C190.844 8.78551 190.951 9.00568 191.167 9.15483C191.385 9.30161 191.66 9.375 191.994 9.375ZM196.734 6.71875V10H195.896V4.54545H196.706V5.39773H196.777C196.904 5.12074 197.099 4.8982 197.359 4.73011C197.619 4.55966 197.956 4.47443 198.368 4.47443C198.737 4.47443 199.06 4.55019 199.337 4.7017C199.614 4.85085 199.829 5.07812 199.983 5.38352C200.137 5.68655 200.214 6.07008 200.214 6.53409V10H199.376V6.59091C199.376 6.16241 199.265 5.8286 199.042 5.58949C198.82 5.34801 198.514 5.22727 198.126 5.22727C197.859 5.22727 197.619 5.28527 197.409 5.40128C197.2 5.51728 197.036 5.68655 196.915 5.90909C196.794 6.13163 196.734 6.40152 196.734 6.71875ZM203.947 12.1591C203.542 12.1591 203.194 12.107 202.903 12.0028C202.612 11.901 202.369 11.7661 202.175 11.598C201.983 11.4323 201.831 11.2547 201.717 11.0653L202.385 10.5966C202.461 10.696 202.556 10.8097 202.672 10.9375C202.788 11.0677 202.947 11.1802 203.148 11.2749C203.352 11.3719 203.618 11.4205 203.947 11.4205C204.388 11.4205 204.751 11.3139 205.037 11.1009C205.324 10.8878 205.467 10.554 205.467 10.0994V8.99148H205.396C205.335 9.09091 205.247 9.21402 205.133 9.3608C205.022 9.50521 204.861 9.63423 204.65 9.74787C204.442 9.85914 204.16 9.91477 203.805 9.91477C203.365 9.91477 202.97 9.81061 202.619 9.60227C202.271 9.39394 201.995 9.09091 201.792 8.69318C201.59 8.29545 201.49 7.8125 201.49 7.24432C201.49 6.68561 201.588 6.1991 201.785 5.7848C201.981 5.36813 202.255 5.04616 202.605 4.81889C202.955 4.58925 203.36 4.47443 203.819 4.47443C204.175 4.47443 204.456 4.53362 204.665 4.65199C204.875 4.76799 205.036 4.90057 205.148 5.04972C205.261 5.1965 205.349 5.31723 205.41 5.41193H205.496V4.54545H206.305V10.1562C206.305 10.625 206.199 11.0062 205.986 11.2997C205.775 11.5956 205.491 11.8123 205.133 11.9496C204.778 12.0893 204.383 12.1591 203.947 12.1591ZM203.919 9.16193C204.255 9.16193 204.539 9.08499 204.771 8.93111C205.003 8.77723 205.18 8.55587 205.3 8.26705C205.421 7.97822 205.481 7.63258 205.481 7.23011C205.481 6.83712 205.422 6.49029 205.304 6.18963C205.185 5.88897 205.01 5.65341 204.778 5.48295C204.546 5.3125 204.26 5.22727 203.919 5.22727C203.564 5.22727 203.268 5.31723 203.031 5.49716C202.797 5.67708 202.62 5.91856 202.502 6.22159C202.386 6.52462 202.328 6.8608 202.328 7.23011C202.328 7.6089 202.387 7.94389 202.506 8.23509C202.626 8.52391 202.804 8.75118 203.038 8.9169C203.275 9.08026 203.568 9.16193 203.919 9.16193ZM210.126 10.1136C209.601 10.1136 209.147 9.99763 208.766 9.76562C208.387 9.53125 208.095 9.20455 207.889 8.78551C207.685 8.36411 207.584 7.87405 207.584 7.31534C207.584 6.75663 207.685 6.2642 207.889 5.83807C208.095 5.40956 208.381 5.07576 208.748 4.83665C209.118 4.59517 209.549 4.47443 210.041 4.47443C210.325 4.47443 210.606 4.52178 210.883 4.61648C211.16 4.71117 211.412 4.86506 211.639 5.07812C211.866 5.28883 212.047 5.56818 212.182 5.91619C212.317 6.2642 212.385 6.69271 212.385 7.2017V7.55682H208.18V6.83239H211.532C211.532 6.52462 211.471 6.25 211.348 6.00852C211.227 5.76705 211.054 5.57647 210.829 5.43679C210.607 5.29711 210.344 5.22727 210.041 5.22727C209.707 5.22727 209.418 5.31013 209.175 5.47585C208.933 5.6392 208.747 5.85227 208.617 6.11506C208.487 6.37784 208.422 6.65956 208.422 6.96023V7.44318C208.422 7.85511 208.493 8.20431 208.635 8.49077C208.779 8.77486 208.979 8.99148 209.235 9.14062C209.491 9.28741 209.788 9.3608 210.126 9.3608C210.346 9.3608 210.545 9.33002 210.723 9.26847C210.903 9.20455 211.058 9.10985 211.188 8.98438C211.318 8.85653 211.419 8.69792 211.49 8.50852L212.3 8.7358C212.214 9.01042 212.071 9.25189 211.87 9.46023C211.669 9.66619 211.42 9.82718 211.124 9.94318C210.828 10.0568 210.496 10.1136 210.126 10.1136ZM216.472 10V4.54545H217.282V5.36932H217.339C217.438 5.09943 217.618 4.88045 217.878 4.71236C218.139 4.54427 218.432 4.46023 218.759 4.46023C218.821 4.46023 218.898 4.46141 218.99 4.46378C219.082 4.46615 219.152 4.4697 219.199 4.47443V5.3267C219.171 5.3196 219.106 5.30895 219.004 5.29474C218.905 5.27817 218.799 5.26989 218.688 5.26989C218.423 5.26989 218.186 5.32552 217.978 5.43679C217.772 5.54569 217.608 5.69721 217.488 5.89134C217.369 6.0831 217.31 6.30208 217.31 6.5483V10H216.472ZM222.314 10.1136C221.788 10.1136 221.335 9.99763 220.954 9.76562C220.575 9.53125 220.282 9.20455 220.077 8.78551C219.873 8.36411 219.771 7.87405 219.771 7.31534C219.771 6.75663 219.873 6.2642 220.077 5.83807C220.282 5.40956 220.569 5.07576 220.936 4.83665C221.305 4.59517 221.736 4.47443 222.229 4.47443C222.513 4.47443 222.793 4.52178 223.07 4.61648C223.347 4.71117 223.599 4.86506 223.827 5.07812C224.054 5.28883 224.235 5.56818 224.37 5.91619C224.505 6.2642 224.572 6.69271 224.572 7.2017V7.55682H220.368V6.83239H223.72C223.72 6.52462 223.658 6.25 223.535 6.00852C223.415 5.76705 223.242 5.57647 223.017 5.43679C222.794 5.29711 222.532 5.22727 222.229 5.22727C221.895 5.22727 221.606 5.31013 221.362 5.47585C221.121 5.6392 220.935 5.85227 220.805 6.11506C220.674 6.37784 220.609 6.65956 220.609 6.96023V7.44318C220.609 7.85511 220.68 8.20431 220.822 8.49077C220.967 8.77486 221.167 8.99148 221.422 9.14062C221.678 9.28741 221.975 9.3608 222.314 9.3608C222.534 9.3608 222.733 9.33002 222.91 9.26847C223.09 9.20455 223.245 9.10985 223.376 8.98438C223.506 8.85653 223.606 8.69792 223.677 8.50852L224.487 8.7358C224.402 9.01042 224.259 9.25189 224.057 9.46023C223.856 9.66619 223.608 9.82718 223.312 9.94318C223.016 10.0568 222.683 10.1136 222.314 10.1136ZM225.847 12.0455V4.54545H226.657V5.41193H226.756C226.818 5.31723 226.903 5.1965 227.012 5.04972C227.123 4.90057 227.282 4.76799 227.488 4.65199C227.696 4.53362 227.978 4.47443 228.333 4.47443C228.792 4.47443 229.197 4.58925 229.547 4.81889C229.898 5.04853 230.171 5.37405 230.368 5.79545C230.564 6.21686 230.662 6.71402 230.662 7.28693C230.662 7.86458 230.564 8.36529 230.368 8.78906C230.171 9.21046 229.899 9.53717 229.551 9.76918C229.203 9.99882 228.802 10.1136 228.347 10.1136C227.997 10.1136 227.716 10.0556 227.506 9.93963C227.295 9.82126 227.133 9.6875 227.019 9.53835C226.905 9.38684 226.818 9.26136 226.756 9.16193H226.685V12.0455H225.847ZM226.671 7.27273C226.671 7.68466 226.731 8.04806 226.852 8.36293C226.973 8.67543 227.149 8.92045 227.381 9.09801C227.613 9.2732 227.897 9.3608 228.233 9.3608C228.584 9.3608 228.876 9.26847 229.111 9.08381C229.347 8.89678 229.525 8.64583 229.643 8.33097C229.764 8.01373 229.824 7.66098 229.824 7.27273C229.824 6.8892 229.765 6.54356 229.647 6.2358C229.531 5.92566 229.354 5.68063 229.118 5.50071C228.883 5.31842 228.589 5.22727 228.233 5.22727C227.893 5.22727 227.606 5.31368 227.374 5.48651C227.142 5.65696 226.967 5.89607 226.849 6.20384C226.73 6.50923 226.671 6.86553 226.671 7.27273ZM234.228 10.1136C233.702 10.1136 233.249 9.99763 232.868 9.76562C232.489 9.53125 232.197 9.20455 231.991 8.78551C231.787 8.36411 231.685 7.87405 231.685 7.31534C231.685 6.75663 231.787 6.2642 231.991 5.83807C232.197 5.40956 232.483 5.07576 232.85 4.83665C233.219 4.59517 233.65 4.47443 234.143 4.47443C234.427 4.47443 234.707 4.52178 234.984 4.61648C235.261 4.71117 235.513 4.86506 235.741 5.07812C235.968 5.28883 236.149 5.56818 236.284 5.91619C236.419 6.2642 236.486 6.69271 236.486 7.2017V7.55682H232.282V6.83239H235.634C235.634 6.52462 235.573 6.25 235.449 6.00852C235.329 5.76705 235.156 5.57647 234.931 5.43679C234.708 5.29711 234.446 5.22727 234.143 5.22727C233.809 5.22727 233.52 5.31013 233.276 5.47585C233.035 5.6392 232.849 5.85227 232.719 6.11506C232.588 6.37784 232.523 6.65956 232.523 6.96023V7.44318C232.523 7.85511 232.594 8.20431 232.736 8.49077C232.881 8.77486 233.081 8.99148 233.336 9.14062C233.592 9.28741 233.889 9.3608 234.228 9.3608C234.448 9.3608 234.647 9.33002 234.824 9.26847C235.004 9.20455 235.159 9.10985 235.29 8.98438C235.42 8.85653 235.52 8.69792 235.591 8.50852L236.401 8.7358C236.316 9.01042 236.173 9.25189 235.971 9.46023C235.77 9.66619 235.522 9.82718 235.226 9.94318C234.93 10.0568 234.597 10.1136 234.228 10.1136ZM240.133 4.54545V5.25568H237.307V4.54545H240.133ZM238.131 3.23864H238.969V8.4375C238.969 8.67424 239.003 8.8518 239.072 8.97017C239.143 9.08617 239.233 9.1643 239.341 9.20455C239.453 9.24242 239.57 9.26136 239.693 9.26136C239.785 9.26136 239.861 9.25663 239.92 9.24716C239.979 9.23532 240.027 9.22585 240.062 9.21875L240.233 9.97159C240.176 9.9929 240.097 10.0142 239.995 10.0355C239.893 10.0592 239.764 10.071 239.608 10.071C239.371 10.071 239.139 10.0201 238.912 9.91832C238.687 9.81652 238.5 9.66146 238.351 9.45312C238.204 9.24479 238.131 8.98201 238.131 8.66477V3.23864ZM241.394 10V4.54545H242.232V10H241.394ZM241.82 3.63636C241.657 3.63636 241.516 3.58073 241.398 3.46946C241.282 3.35819 241.224 3.22443 241.224 3.06818C241.224 2.91193 241.282 2.77817 241.398 2.6669C241.516 2.55563 241.657 2.5 241.82 2.5C241.983 2.5 242.123 2.55563 242.239 2.6669C242.358 2.77817 242.417 2.91193 242.417 3.06818C242.417 3.22443 242.358 3.35819 242.239 3.46946C242.123 3.58073 241.983 3.63636 241.82 3.63636ZM246.139 4.54545V5.25568H243.312V4.54545H246.139ZM244.136 3.23864H244.974V8.4375C244.974 8.67424 245.009 8.8518 245.077 8.97017C245.148 9.08617 245.238 9.1643 245.347 9.20455C245.459 9.24242 245.576 9.26136 245.699 9.26136C245.791 9.26136 245.867 9.25663 245.926 9.24716C245.985 9.23532 246.033 9.22585 246.068 9.21875L246.239 9.97159C246.182 9.9929 246.103 10.0142 246.001 10.0355C245.899 10.0592 245.77 10.071 245.614 10.071C245.377 10.071 245.145 10.0201 244.918 9.91832C244.693 9.81652 244.506 9.66146 244.357 9.45312C244.21 9.24479 244.136 8.98201 244.136 8.66477V3.23864ZM247.4 10V4.54545H248.238V10H247.4ZM247.826 3.63636C247.663 3.63636 247.522 3.58073 247.403 3.46946C247.287 3.35819 247.229 3.22443 247.229 3.06818C247.229 2.91193 247.287 2.77817 247.403 2.6669C247.522 2.55563 247.663 2.5 247.826 2.5C247.989 2.5 248.129 2.55563 248.245 2.6669C248.363 2.77817 248.423 2.91193 248.423 3.06818C248.423 3.22443 248.363 3.35819 248.245 3.46946C248.129 3.58073 247.989 3.63636 247.826 3.63636ZM251.989 10.1136C251.496 10.1136 251.064 9.99645 250.693 9.76207C250.323 9.5277 250.035 9.19981 249.826 8.77841C249.62 8.35701 249.517 7.86458 249.517 7.30114C249.517 6.73295 249.62 6.23698 249.826 5.81321C250.035 5.38944 250.323 5.06037 250.693 4.82599C251.064 4.59162 251.496 4.47443 251.989 4.47443C252.481 4.47443 252.912 4.59162 253.281 4.82599C253.653 5.06037 253.942 5.38944 254.148 5.81321C254.356 6.23698 254.46 6.73295 254.46 7.30114C254.46 7.86458 254.356 8.35701 254.148 8.77841C253.942 9.19981 253.653 9.5277 253.281 9.76207C252.912 9.99645 252.481 10.1136 251.989 10.1136ZM251.989 9.3608C252.363 9.3608 252.671 9.26491 252.912 9.07315C253.154 8.88139 253.332 8.62926 253.448 8.31676C253.564 8.00426 253.622 7.66572 253.622 7.30114C253.622 6.93655 253.564 6.59683 253.448 6.28196C253.332 5.96709 253.154 5.71259 252.912 5.51847C252.671 5.32434 252.363 5.22727 251.989 5.22727C251.615 5.22727 251.307 5.32434 251.066 5.51847C250.824 5.71259 250.645 5.96709 250.529 6.28196C250.413 6.59683 250.355 6.93655 250.355 7.30114C250.355 7.66572 250.413 8.00426 250.529 8.31676C250.645 8.62926 250.824 8.88139 251.066 9.07315C251.307 9.26491 251.615 9.3608 251.989 9.3608ZM256.578 6.71875V10H255.74V4.54545H256.549V5.39773H256.62C256.748 5.12074 256.942 4.8982 257.203 4.73011C257.463 4.55966 257.799 4.47443 258.211 4.47443C258.581 4.47443 258.904 4.55019 259.181 4.7017C259.458 4.85085 259.673 5.07812 259.827 5.38352C259.981 5.68655 260.058 6.07008 260.058 6.53409V10H259.22V6.59091C259.22 6.16241 259.109 5.8286 258.886 5.58949C258.663 5.34801 258.358 5.22727 257.97 5.22727C257.702 5.22727 257.463 5.28527 257.252 5.40128C257.044 5.51728 256.88 5.68655 256.759 5.90909C256.638 6.13163 256.578 6.40152 256.578 6.71875ZM266.618 10.1136C266.106 10.1136 265.666 9.9929 265.297 9.75142C264.927 9.50994 264.643 9.17732 264.444 8.75355C264.246 8.32978 264.146 7.84564 264.146 7.30114C264.146 6.74716 264.248 6.25829 264.452 5.83452C264.657 5.40838 264.944 5.07576 265.311 4.83665C265.68 4.59517 266.111 4.47443 266.604 4.47443C266.987 4.47443 267.333 4.54545 267.64 4.6875C267.948 4.82955 268.2 5.02841 268.397 5.28409C268.593 5.53977 268.715 5.83807 268.763 6.17898H267.925C267.861 5.9304 267.719 5.71023 267.498 5.51847C267.281 5.32434 266.987 5.22727 266.618 5.22727C266.291 5.22727 266.005 5.3125 265.758 5.48295C265.515 5.65104 265.324 5.88897 265.187 6.19673C265.052 6.50213 264.984 6.8608 264.984 7.27273C264.984 7.69413 265.05 8.06108 265.183 8.37358C265.318 8.68608 265.507 8.92874 265.751 9.10156C265.997 9.27438 266.286 9.3608 266.618 9.3608C266.836 9.3608 267.033 9.32292 267.211 9.24716C267.388 9.1714 267.539 9.0625 267.662 8.92045C267.785 8.77841 267.872 8.60795 267.925 8.40909H268.763C268.715 8.73106 268.598 9.02107 268.411 9.27912C268.226 9.5348 267.981 9.7384 267.676 9.88991C267.373 10.0391 267.02 10.1136 266.618 10.1136ZM272.204 10.1136C271.711 10.1136 271.279 9.99645 270.907 9.76207C270.538 9.5277 270.249 9.19981 270.041 8.77841C269.835 8.35701 269.732 7.86458 269.732 7.30114C269.732 6.73295 269.835 6.23698 270.041 5.81321C270.249 5.38944 270.538 5.06037 270.907 4.82599C271.279 4.59162 271.711 4.47443 272.204 4.47443C272.696 4.47443 273.127 4.59162 273.496 4.82599C273.868 5.06037 274.157 5.38944 274.363 5.81321C274.571 6.23698 274.675 6.73295 274.675 7.30114C274.675 7.86458 274.571 8.35701 274.363 8.77841C274.157 9.19981 273.868 9.5277 273.496 9.76207C273.127 9.99645 272.696 10.1136 272.204 10.1136ZM272.204 9.3608C272.578 9.3608 272.885 9.26491 273.127 9.07315C273.368 8.88139 273.547 8.62926 273.663 8.31676C273.779 8.00426 273.837 7.66572 273.837 7.30114C273.837 6.93655 273.779 6.59683 273.663 6.28196C273.547 5.96709 273.368 5.71259 273.127 5.51847C272.885 5.32434 272.578 5.22727 272.204 5.22727C271.83 5.22727 271.522 5.32434 271.28 5.51847C271.039 5.71259 270.86 5.96709 270.744 6.28196C270.628 6.59683 270.57 6.93655 270.57 7.30114C270.57 7.66572 270.628 8.00426 270.744 8.31676C270.86 8.62926 271.039 8.88139 271.28 9.07315C271.522 9.26491 271.83 9.3608 272.204 9.3608ZM279.392 7.76989V4.54545H280.23V10H279.392V9.0767H279.335C279.207 9.35369 279.009 9.58925 278.739 9.78338C278.469 9.97514 278.128 10.071 277.716 10.071C277.375 10.071 277.072 9.99645 276.807 9.8473C276.542 9.69579 276.333 9.46851 276.182 9.16548C276.03 8.86009 275.955 8.47538 275.955 8.01136V4.54545H276.793V7.95455C276.793 8.35227 276.904 8.66951 277.126 8.90625C277.351 9.14299 277.638 9.26136 277.986 9.26136C278.194 9.26136 278.406 9.2081 278.621 9.10156C278.839 8.99503 279.022 8.83168 279.168 8.61151C279.317 8.39134 279.392 8.1108 279.392 7.76989ZM282.603 6.71875V10H281.765V4.54545H282.575V5.39773H282.646C282.774 5.12074 282.968 4.8982 283.228 4.73011C283.489 4.55966 283.825 4.47443 284.237 4.47443C284.606 4.47443 284.929 4.55019 285.206 4.7017C285.483 4.85085 285.699 5.07812 285.852 5.38352C286.006 5.68655 286.083 6.07008 286.083 6.53409V10H285.245V6.59091C285.245 6.16241 285.134 5.8286 284.911 5.58949C284.689 5.34801 284.383 5.22727 283.995 5.22727C283.728 5.22727 283.489 5.28527 283.278 5.40128C283.07 5.51728 282.905 5.68655 282.784 5.90909C282.664 6.13163 282.603 6.40152 282.603 6.71875ZM289.987 4.54545V5.25568H287.16V4.54545H289.987ZM287.984 3.23864H288.822V8.4375C288.822 8.67424 288.856 8.8518 288.925 8.97017C288.996 9.08617 289.086 9.1643 289.195 9.20455C289.306 9.24242 289.423 9.26136 289.547 9.26136C289.639 9.26136 289.715 9.25663 289.774 9.24716C289.833 9.23532 289.88 9.22585 289.916 9.21875L290.086 9.97159C290.029 9.9929 289.95 10.0142 289.848 10.0355C289.747 10.0592 289.618 10.071 289.461 10.071C289.225 10.071 288.993 10.0201 288.765 9.91832C288.54 9.81652 288.353 9.66146 288.204 9.45312C288.057 9.24479 287.984 8.98201 287.984 8.66477V3.23864Z" fill="black"/>
</svg>
